<svg xmlns="http://www.w3.org/2000/svg" viewBox="5.249999046325684 5.249999523162842 117.49906158447266 117.49700164794922"><g><path d="M51.148 98.147a12.3 12.3 0 1 0 12.3 12.3 12.315 12.315 0 0 0-12.3-12.3zm0 21.1a8.8 8.8 0 1 1 8.8-8.8 8.811 8.811 0 0 1-8.8 8.803z" fill="#ffffff" opacity="1" data-original="#000000"/><path d="M51.148 104.557a5.892 5.892 0 1 0 5.893 5.891 5.9 5.9 0 0 0-5.893-5.891zm0 8.284a2.392 2.392 0 1 1 2.393-2.393 2.395 2.395 0 0 1-2.393 2.393zM105.676 98.147a12.3 12.3 0 1 0 12.3 12.3 12.316 12.316 0 0 0-12.3-12.3zm0 21.1a8.8 8.8 0 1 1 8.8-8.8 8.811 8.811 0 0 1-8.8 8.803z" fill="#ffffff" opacity="1" data-original="#000000"/><path d="M105.676 104.557a5.892 5.892 0 1 0 5.891 5.891 5.9 5.9 0 0 0-5.891-5.891zm0 8.284a2.392 2.392 0 1 1 2.391-2.393 2.4 2.4 0 0 1-2.391 2.393zM122.711 26.7A1.75 1.75 0 0 0 121 24.587H37.239L34.4 11.372a7.791 7.791 0 0 0-7.577-6.122H7A1.749 1.749 0 0 0 5.25 7v6.709A1.749 1.749 0 0 0 7 15.459h17.836l15.405 71.726a7.791 7.791 0 0 0 7.577 6.124h63.407a1.751 1.751 0 0 0 1.75-1.75V84.85a1.75 1.75 0 0 0-1.75-1.75H49.806l-2.041-9.5h63.46a1.749 1.749 0 0 0 1.71-1.383zm-6.384 13.054h-16.3l1.253-11.671h17.556zm-3.258 15.171H98.4l1.253-11.671h15.927zM80.162 70.1V58.429H94.5L93.246 70.1zm-16.584 0-1.253-11.671h14.337V70.1zM41.249 43.258h15.926l1.253 11.671H43.755zm19.447 0h15.966v11.671H61.949zm15.966-3.5H60.32l-1.254-11.671h17.6zm3.5-11.671h17.6L96.5 39.758H80.162zm0 26.842V43.258h15.967l-1.254 11.671zM55.546 28.087 56.8 39.758H40.5l-2.51-11.671zM109.475 86.6v3.209H47.818a4.272 4.272 0 0 1-4.155-3.358l-15.7-73.109a1.75 1.75 0 0 0-1.711-1.383H8.75V8.75h18.073a4.273 4.273 0 0 1 4.155 3.357l15.7 73.11a1.749 1.749 0 0 0 1.714 1.383zM44.507 58.429H58.8L60.058 70.1H47.014zM109.81 70.1H96.766l1.254-11.671h14.3z" fill="#ffffff" opacity="1" data-original="#000000"/></g></svg>