<svg xmlns="http://www.w3.org/2000/svg" viewBox="-0.00002842168942152057 2.491992473602295 40.508033752441406 35.524009704589844"><g><path d="M3.023 20.822a.455.455 0 0 0 .066.083l15.918 16.914a.627.627 0 0 0 .444.197h.012a.622.622 0 0 0 .435-.176L37.28 21.032a3.09 3.09 0 0 0 .117-.108.321.321 0 0 0 .068-.081 10.773 10.773 0 0 0 3.043-7.517c0-5.974-4.86-10.834-10.835-10.834-3.91 0-7.498 2.094-9.419 5.48a10.812 10.812 0 0 0-9.419-5.48C4.86 2.492 0 7.352 0 13.326a10.744 10.744 0 0 0 3.023 7.496zm7.811-17.079a9.562 9.562 0 0 1 8.842 5.891.624.624 0 0 0 1.154-.001 9.565 9.565 0 0 1 8.843-5.89c5.285 0 9.585 4.3 9.585 9.584a9.527 9.527 0 0 1-2.754 6.712.529.529 0 0 0-.045.053L19.483 36.5l-15.4-16.358a.577.577 0 0 0-.082-.104 9.518 9.518 0 0 1-2.752-6.711c0-5.285 4.3-9.584 9.585-9.584z" style="" fill="#ffffff" data-original="#010002" class=""></path></g></svg>