<svg xmlns="http://www.w3.org/2000/svg" version="1.1" xmlns:xlink="http://www.w3.org/1999/xlink" width="512" height="512" x="0" y="0" viewBox="0 0 48 48" style="enable-background:new 0 0 512 512" xml:space="preserve"><g><path d="M32.5 33c.4.4.4 1 0 1.4-.2.2-.5.3-.7.3s-.5-.1-.7-.3L22.7 26l-8.4 8.4c-.2.2-.5.3-.7.3s-.5-.1-.7-.3c-.4-.4-.4-1 0-1.4l8.4-8.4-8.4-8.4c-.4-.4-.4-1 0-1.4s1-.4 1.4 0l8.4 8.4 8.4-8.4c.4-.4 1-.4 1.4 0s.4 1 0 1.4l-8.4 8.4z" fill="#000000" opacity="1" data-original="#000000"></path></g></svg>