<svg xmlns="http://www.w3.org/2000/svg" version="1.1" xmlns:xlink="http://www.w3.org/1999/xlink" width="512" height="512" x="0" y="0" viewBox="0 0 60 60" style="enable-background:new 0 0 512 512" xml:space="preserve" class=""><g><path d="M57 26H34V11.16a3.974 3.974 0 0 0-2.732-3.788l-3.314-1.107C27.49 1.339 22.633 0 20 0h-6c-2.633 0-7.49 1.339-7.954 6.265L2.738 7.37A3.976 3.976 0 0 0 0 11.16V30a4 4 0 0 0 4 4h22v23a3 3 0 0 0 3 3h28a3 3 0 0 0 3-3V29a3 3 0 0 0-3-3zM26 7.034c0 1.711-1.878 5.766-3.406 7.354a1.989 1.989 0 0 1-2.838.033l-1.286-1.336C20.247 11.56 24 7.987 24 5V4a4 4 0 0 0-.119-.927A4.382 4.382 0 0 1 26 7.034zM12 4a2 2 0 0 1 2-2h6a2 2 0 0 1 2 2v1c0 1.866-2.851 4.9-5 6.711C14.851 9.9 12 6.866 12 5zm-1.886-.911A3.966 3.966 0 0 0 10 4v1c0 2.987 3.753 6.56 5.53 8.085l-1.274 1.324c-.375.386-.894.6-1.432.591a1.98 1.98 0 0 1-1.418-.612C9.878 12.8 8 8.745 8 7.034a4.372 4.372 0 0 1 2.114-3.945zM2 30V11.16a1.981 1.981 0 0 1 1.367-1.891l2.8-.937a18.575 18.575 0 0 0 3.794 7.442A3.961 3.961 0 0 0 12.808 17h.034c1.07 0 2.095-.429 2.844-1.192l.314-.327V32H4a2 2 0 0 1-2-2zm16 2V15.481l.326.338A3.963 3.963 0 0 0 21.158 17h.034a3.961 3.961 0 0 0 2.843-1.226 18.575 18.575 0 0 0 3.794-7.442l2.81.939A1.979 1.979 0 0 1 32 11.16V26h-3a3 3 0 0 0-3 3v3zm40 25a1 1 0 0 1-1 1H29a1 1 0 0 1-1-1V29a1 1 0 0 1 1-1h28a1 1 0 0 1 1 1z" fill="#4c87af" opacity="1" data-original="#000000" class=""></path><path d="M34 35.184V32a1 1 0 0 0-2 0v3.184a2.982 2.982 0 0 0 0 5.632V54a1 1 0 0 0 2 0V40.816a2.982 2.982 0 0 0 0-5.632zM33 39a1 1 0 1 1 0-2 1 1 0 0 1 0 2zM44 46.184V32a1 1 0 0 0-2 0v14.184a2.982 2.982 0 0 0 0 5.632V54a1 1 0 0 0 2 0v-2.184a2.982 2.982 0 0 0 0-5.632zM43 50a1 1 0 1 1 0-2 1 1 0 0 1 0 2zM54 38.184V32a1 1 0 0 0-2 0v6.184a2.982 2.982 0 0 0 0 5.632V54a1 1 0 0 0 2 0V43.816a2.982 2.982 0 0 0 0-5.632zM53 42a1 1 0 1 1 0-2 1 1 0 0 1 0 2z" fill="#4c87af" opacity="1" data-original="#000000" class=""></path></g></svg>