<svg xmlns="http://www.w3.org/2000/svg" xmlns:xlink="http://www.w3.org/1999/xlink" viewBox="0,0,256,256" width="50px" height="50px" fill-rule="nonzero"><g fill="#4c87af" fill-rule="nonzero" stroke="none" stroke-width="1" stroke-linecap="butt" stroke-linejoin="miter" stroke-miterlimit="10" stroke-dasharray="" stroke-dashoffset="0" font-family="none" font-weight="none" font-size="none" text-anchor="none" style="mix-blend-mode: normal"><path d="M0,256v-256h256v256z" id="bgRectangle"></path></g><g fill="#ffffff" fill-rule="nonzero" stroke="none" stroke-width="1" stroke-linecap="butt" stroke-linejoin="miter" stroke-miterlimit="10" stroke-dasharray="" stroke-dashoffset="0" font-family="none" font-weight="none" font-size="none" text-anchor="none" style="mix-blend-mode: normal"><g transform="scale(5.12,5.12)"><path d="M23.75,2c-10.94922,0 -17.75,6.82031 -17.75,17.78125c0,1.5625 0.21484,3.10156 0.4375,4.75c0.60547,4.44141 1.23438,9.04688 -2.4375,14.03125c-0.16016,0.21875 -0.23437,0.48047 -0.1875,0.75c0.04688,0.26953 0.21094,0.50391 0.4375,0.65625c0.16797,0.10938 4.15234,2.71094 13.25,3.71875c2.30469,2.77734 4.94922,4.3125 7.5,4.3125c2.5625,0 5.22656,-1.52734 7.53125,-4.3125c9.09375,-1.01562 13.32422,-3.57812 13.5,-3.6875c0.24219,-0.14844 0.38672,-0.41016 0.4375,-0.6875c0.05078,-0.27734 -0.01172,-0.55859 -0.1875,-0.78125c-3.72656,-4.78906 -3.22656,-8.86328 -2.6875,-13.1875c0.19141,-1.54297 0.40625,-3.14844 0.40625,-4.78125c0,-6.53516 -2.92187,-14.15234 -11.125,-14.40625c-3.47266,-3.4375 -6.86719,-4.15625 -9.125,-4.15625zM31.84375,17.34375c1.48438,1.57813 4.15625,5.1875 4.15625,10.9375c0,7.67188 -4.76562,13.78125 -4.8125,13.84375c-0.00781,0.01172 0.00781,0.01953 0,0.03125c-1.96875,2.47266 -4.16406,3.84375 -6.1875,3.84375c-2.02734,0 -4.24219,-1.37891 -6.21875,-3.875c-0.00781,-0.01172 -0.02344,-0.01953 -0.03125,-0.03125c-0.04687,-0.04297 -4.75,-4.52344 -4.75,-11.09375c0,-5.00391 4.29688,-6.05469 8.09375,-6.96875c0.78516,-0.1875 1.51563,-0.35547 2.1875,-0.5625c4.48828,-1.39062 6.64063,-4.34375 7.5625,-6.125zM19.5,28c-0.82812,0 -1.5,0.67188 -1.5,1.5c0,0.82813 0.67188,1.5 1.5,1.5c0.82813,0 1.5,-0.67187 1.5,-1.5c0,-0.82812 -0.67187,-1.5 -1.5,-1.5zM30.5,28c-0.82812,0 -1.5,0.67188 -1.5,1.5c0,0.82813 0.67188,1.5 1.5,1.5c0.82813,0 1.5,-0.67187 1.5,-1.5c0,-0.82812 -0.67187,-1.5 -1.5,-1.5z"></path></g></g></svg>